<?xml version="1.0" encoding="UTF-8"?>
<svg width="80px" height="80px" viewBox="0 0 80 80" version="1.1" xmlns="http://www.w3.org/2000/svg" xmlns:xlink="http://www.w3.org/1999/xlink">
    <!-- Generator: Sketch 43.1 (39012) - http://www.bohemiancoding.com/sketch -->
    <title>Group</title>
    <desc>Created with Sketch.</desc>
    <defs></defs>
    <g id="Page-1" stroke="none" stroke-width="1" fill="none" fill-rule="evenodd">
        <g id="Artboard" transform="translate(0.000000, -1.000000)" fill-rule="nonzero" fill="#F0E5DE">
            <g id="Group" transform="translate(0.000000, 1.000000)">
                <path d="M72.672,2.443 C75.365,2.443 77.558,4.634 77.558,7.328 L77.558,72.672 C77.558,75.366 75.366,77.557 72.672,77.557 L7.328,77.557 C4.635,77.557 2.442,75.366 2.442,72.672 L2.442,7.328 C2.442,4.634 4.634,2.443 7.328,2.443 L72.672,2.443 L72.672,2.443 Z M72.672,0 L7.328,0 C3.28,0 0,3.281 0,7.328 L0,72.672 C0,76.719 3.28,80 7.328,80 L72.672,80 C76.719,80 80,76.719 80,72.672 L80,7.328 C80,3.281 76.719,0 72.672,0 L72.672,0 Z" id="Shape"></path>
                <path d="M63.795,40.403 C63.795,41.178 63.167,41.806 62.393,41.806 L17.403,41.806 C16.628,41.806 16,41.178 16,40.403 L16,40.403 C16,39.628 16.628,39 17.403,39 L62.393,39 C63.167,39 63.795,39.628 63.795,40.403 L63.795,40.403 Z" id="Shape" transform="translate(39.897500, 40.403000) rotate(-315.000000) translate(-39.897500, -40.403000) "></path>
                <path d="M63.795,40.403 C63.795,41.178 63.167,41.806 62.393,41.806 L17.403,41.806 C16.628,41.806 16,41.178 16,40.403 L16,40.403 C16,39.628 16.628,39 17.403,39 L62.393,39 C63.168,39 63.795,39.628 63.795,40.403 L63.795,40.403 Z" id="Shape" transform="translate(39.897500, 40.403000) rotate(-45.000000) translate(-39.897500, -40.403000) "></path>
            </g>
        </g>
    </g>
</svg>