<?xml version="1.0" encoding="UTF-8"?>
<svg width="97px" height="80px" viewBox="0 0 97 80" version="1.1" xmlns="http://www.w3.org/2000/svg" xmlns:xlink="http://www.w3.org/1999/xlink">
    <!-- Generator: Sketch 43.1 (39012) - http://www.bohemiancoding.com/sketch -->
    <title>Group 2</title>
    <desc>Created with Sketch.</desc>
    <defs></defs>
    <g id="Page-1" stroke="none" stroke-width="1" fill="none" fill-rule="evenodd">
        <g id="Desktop-Landscape" transform="translate(-495.000000, -306.000000)">
            <g id="Group-2" transform="translate(495.000000, 306.000000)">
                <path d="M52.3611835,57.5366072 L87.9668343,9.04419282 L52.3611835,31.8101976 L52.3611835,57.5366072 Z M6.81913417,60.9294663 L6.81913417,9.92145487 L8.20475513,9.92145487 L8.20475513,58.3988628 L93.4832774,3.87237043 L50.9755626,61.764915 L50.9755626,2.09346536 L52.3611835,2.09346536 L52.3611835,31.8101976 L6.81913417,60.9294663 Z" id="Path-2" fill="#ABD0CE" fill-rule="nonzero"></path>
                <path d="M45.9150327,4.21225434 L12.4553892,52.9094286 L45.9150327,30.8513604 L45.9150327,4.21225434 Z M91.3786506,0.879744483 L91.3786506,51.836175 L90.0714611,51.836175 L90.0714611,3.30718624 L7.58954545,57.6828917 L47.2222222,0.00148309493 L47.2222222,59.6641645 L45.9150327,59.6641645 L45.9150327,30.8513604 L91.3786506,0.879744483 Z" id="Path-2-Copy" fill="#7C7877" fill-rule="nonzero"></path>
                <path d="M0.24571857,78.5372714 L3.8049144,67.889468 L6.3961281,67.889468 L9.91064783,78.5372714 L7.85554731,78.5372714 L7.00670144,75.9013816 L2.9411765,75.9013816 L2.10722267,78.5372714 L0.24571857,78.5372714 Z M4.98138499,69.5126996 L3.40282952,74.4568545 L6.54504843,74.4568545 L4.98138499,69.5126996 Z M11.1367585,78.5372714 L11.1367585,67.889468 L14.7108464,67.889468 C17.0488955,67.889468 18.6870191,68.8425581 18.6870191,71.0167949 L18.6870191,71.076363 C18.6870191,72.7442707 17.6445768,73.5931166 16.3191859,73.9356333 L19.3124845,78.5372714 L17.1680318,78.5372714 L14.3832217,74.233474 L13.1173989,74.233474 L13.1173989,78.5372714 L11.1367585,78.5372714 Z M13.1173989,72.8187309 L14.7108464,72.8187309 C16.0362373,72.8187309 16.7361628,72.2528336 16.7361628,71.1210391 L16.7361628,71.061471 C16.7361628,69.8403243 15.9766692,69.4233474 14.7108464,69.4233474 L13.1173989,69.4233474 L13.1173989,72.8187309 Z M28.7143212,79.8924464 L27.254902,78.328783 C26.6443286,78.5521635 25.9444031,78.6861918 25.1998015,78.6861918 C21.9384463,78.6861918 19.8088856,76.3481426 19.8088856,73.2803839 L19.8088856,73.1612476 C19.8088856,70.0488128 22.0426905,67.7554397 25.1998015,67.7554397 C28.3718044,67.7554397 30.5758253,70.0041367 30.5758253,73.1165715 L30.5758253,73.2357078 C30.5758253,74.9929677 29.8907918,76.4821709 28.7292132,77.4650451 L29.9056838,78.7308679 L28.7143212,79.8924464 Z M25.2146935,77.1225283 C25.5125341,77.1225283 25.7954828,77.0927443 26.0486473,77.0331761 L25.006205,75.9013816 L26.2124597,74.7695872 L27.5229586,76.1843303 C28.1484239,75.4992968 28.5058327,74.4866385 28.5058327,73.2357078 L28.5058327,73.1165715 C28.5058327,70.9274427 27.284686,69.3191032 25.1998015,69.3191032 C23.1000248,69.3191032 21.8639861,70.8529825 21.8639861,73.1463556 L21.8639861,73.2654919 C21.8639861,75.6482171 23.2936213,77.1225283 25.2146935,77.1225283 Z M35.9270291,78.6712997 C38.6671631,78.6712997 39.9627699,77.0778522 39.9627699,74.4866385 L39.9627699,67.889468 L38.6671631,67.889468 L38.6671631,74.3079341 C38.6671631,76.9140399 37.6545049,77.5990734 35.9568131,77.5990734 C34.1846612,77.5990734 33.3953835,76.7353355 33.3953835,74.5015306 L33.3953835,67.889468 L32.0997766,67.889468 L32.0997766,74.6504509 C32.0997766,77.2416646 33.4847357,78.6712997 35.9270291,78.6712997 Z M42.2313229,78.5372714 L43.5269298,78.5372714 L43.5269298,67.889468 L42.2313229,67.889468 L42.2313229,78.5372714 Z M48.0739638,78.5372714 L49.3695706,78.5372714 L49.3695706,68.9468023 L52.4671134,68.9468023 L52.4671134,67.889468 L44.9764209,67.889468 L44.9764209,68.9468023 L48.0739638,68.9468023 L48.0739638,78.5372714 Z M53.8421444,78.5372714 L60.3201787,78.5372714 L60.3201787,77.4799371 L55.1377513,77.4799371 L55.1377513,73.6229006 L59.099032,73.6229006 L59.099032,72.5655663 L55.1377513,72.5655663 L55.1377513,68.9468023 L60.0521221,68.9468023 L60.0521221,67.889468 L53.8421444,67.889468 L53.8421444,78.5372714 Z M64.0630429,78.5372714 L65.3586498,78.5372714 L65.3586498,68.9468023 L68.4561926,68.9468023 L68.4561926,67.889468 L60.9655001,67.889468 L60.9655001,68.9468023 L64.0630429,68.9468023 L64.0630429,78.5372714 Z M73.5691238,78.6712997 C76.3092579,78.6712997 77.6048647,77.0778522 77.6048647,74.4866385 L77.6048647,67.889468 L76.3092579,67.889468 L76.3092579,74.3079341 C76.3092579,76.9140399 75.2965996,77.5990734 73.5989079,77.5990734 C71.826756,77.5990734 71.0374783,76.7353355 71.0374783,74.5015306 L71.0374783,67.889468 L69.7418714,67.889468 L69.7418714,74.6504509 C69.7418714,77.2416646 71.1268305,78.6712997 73.5691238,78.6712997 Z M79.7989575,78.5372714 L79.7989575,67.889468 L83.0007446,67.889468 C85.0409531,67.889468 86.7237528,68.7234219 86.7237528,70.8529825 L86.7237528,70.9125507 C86.7237528,72.6698105 85.5472822,73.5335484 84.087863,73.8164971 L87.3492181,78.5372714 L85.904691,78.5372714 L82.732688,73.9058493 L81.0945644,73.9058493 L81.0945644,78.5372714 L79.7989575,78.5372714 Z M81.0945644,72.878299 L83.0900968,72.878299 C84.6090841,72.878299 85.4281459,72.2230496 85.4281459,70.9125507 L85.4281459,70.8529825 C85.4281459,69.4084554 84.534624,68.9319103 83.0900968,68.9319103 L81.0945644,68.9319103 L81.0945644,72.878299 Z M87.9498635,78.5372714 L91.6133035,67.889468 L93.3109953,67.889468 L96.9148672,78.5372714 L95.6341524,78.5372714 L94.5917101,75.4695127 L90.1985604,75.4695127 L89.1710101,78.5372714 L87.9498635,78.5372714 Z M92.4025813,68.9616944 L90.5559692,74.4419624 L94.2491933,74.4419624 L92.4025813,68.9616944 Z" id="ARQUITETURA" fill="#7C7877"></path>
            </g>
        </g>
    </g>
</svg>